<svg xmlns="http://www.w3.org/2000/svg" x="0px" y="0px"
width="50" height="50"
viewBox="0 0 172 172"
style=" fill:#000000;"><g fill="none" fill-rule="nonzero" stroke="none" stroke-width="1" stroke-linecap="butt" stroke-linejoin="miter" stroke-miterlimit="10" stroke-dasharray="" stroke-dashoffset="0" font-family="none" font-weight="none" font-size="none" text-anchor="none" style="mix-blend-mode: normal"><path d="M0,172v-172h172v172z" fill="none"></path><g><path d="M22.36,46.44c-1.89986,0 -3.44,1.54014 -3.44,3.44c0,1.89986 1.54014,3.44 3.44,3.44c1.89986,0 3.44,-1.54014 3.44,-3.44c0,-1.89986 -1.54014,-3.44 -3.44,-3.44z" fill="#ee3e54"></path><path d="M132.44,20.64c-0.94993,0 -1.72,0.77007 -1.72,1.72c0,0.94993 0.77007,1.72 1.72,1.72c0.94993,0 1.72,-0.77007 1.72,-1.72c0,-0.94993 -0.77007,-1.72 -1.72,-1.72z" fill="#f1bc19"></path><path d="M86,22.36c-35.1474,0 -63.64,28.4926 -63.64,63.64c0,35.1474 28.4926,63.64 63.64,63.64c35.1474,0 63.64,-28.4926 63.64,-63.64c0,-35.1474 -28.4926,-63.64 -63.64,-63.64z" fill="#fce0a2"></path><path d="M142.76,18.92c-3.79972,0 -6.88,3.08028 -6.88,6.88c0,3.79972 3.08028,6.88 6.88,6.88c3.79972,0 6.88,-3.08028 6.88,-6.88c0,-3.79972 -3.08028,-6.88 -6.88,-6.88z" fill="#f1bc19"></path><path d="M149.64,37.84c-1.89986,0 -3.44,1.54014 -3.44,3.44c0,1.89986 1.54014,3.44 3.44,3.44c1.89986,0 3.44,-1.54014 3.44,-3.44c0,-1.89986 -1.54014,-3.44 -3.44,-3.44z" fill="#ee3e54"></path><path d="M139.32,127.28c-1.89986,0 -3.44,1.54014 -3.44,3.44c0,1.89986 1.54014,3.44 3.44,3.44c1.89986,0 3.44,-1.54014 3.44,-3.44c0,-1.89986 -1.54014,-3.44 -3.44,-3.44zM25.8,101.48c-3.79972,0 -6.88,3.08028 -6.88,6.88c0,3.79972 3.08028,6.88 6.88,6.88c3.79972,0 6.88,-3.08028 6.88,-6.88c0,-3.79972 -3.08028,-6.88 -6.88,-6.88z" fill="#fbcd59"></path><path d="M43,146.2c-1.89986,0 -3.44,1.54014 -3.44,3.44c0,1.89986 1.54014,3.44 3.44,3.44c1.89986,0 3.44,-1.54014 3.44,-3.44c0,-1.89986 -1.54014,-3.44 -3.44,-3.44z" fill="#ee3e54"></path><path d="M31.82,87.72c-2.37482,0 -4.3,1.92518 -4.3,4.3c0,2.37482 1.92518,4.3 4.3,4.3c2.37482,0 4.3,-1.92518 4.3,-4.3c0,-2.37482 -1.92518,-4.3 -4.3,-4.3z" fill="#ffffff"></path><path d="M36.12,113.52c-0.94993,0 -1.72,0.77007 -1.72,1.72c0,0.94993 0.77007,1.72 1.72,1.72c0.94993,0 1.72,-0.77007 1.72,-1.72c0,-0.94993 -0.77007,-1.72 -1.72,-1.72z" fill="#f1bc19"></path><path d="M137.6,56.76c-0.94993,0 -1.72,0.77007 -1.72,1.72c0,0.94993 0.77007,1.72 1.72,1.72c0.94993,0 1.72,-0.77007 1.72,-1.72c0,-0.94993 -0.77007,-1.72 -1.72,-1.72z" fill="#ffffff"></path><g><path d="M77.18156,103.27396v-3.17512c0,-10.36128 7.01244,-16.1422 13.19928,-21.242c5.203,-4.28968 10.12048,-8.342 10.12048,-14.4222c0,-6.31928 -5.28556,-12.85528 -14.1298,-12.85528c-8.60688,0 -14.4222,4.95532 -15.41292,13.01524h-12.93096c1.06812,-14.97088 12.1432,-24.209 29.19012,-24.209c16.8044,0 28.53824,9.64748 28.53824,23.46252c0,8.83392 -4.08156,15.36476 -13.23712,21.17664c-7.90856,5.02068 -9.08848,12.39432 -9.08848,16.34172v1.90576h-16.24884z" fill="#a1d3a2"></path><path d="M87.21776,41.59304c16.35032,0 27.33424,8.944 27.33424,22.2568c0,8.3764 -3.90956,14.59248 -12.67984,20.1584c-8.3936,5.33028 -9.64748,13.16316 -9.64748,17.35996v0.70176h-13.83912v-1.9694c0,-9.7954 6.48784,-15.14288 12.76068,-20.3132c5.43004,-4.47544 10.55736,-8.70148 10.55736,-15.351c0,-6.91096 -5.73448,-14.05756 -15.33208,-14.05756c-8.75308,0 -14.99668,5.03444 -16.44664,13.01696h-10.58144c1.52908,-13.70668 11.77512,-21.80272 27.87432,-21.80272M87.21776,39.18504c-19.32764,0 -29.9366,11.19548 -30.45776,26.617h15.29424c0.52116,-7.94124 5.92368,-13.01696 14.31728,-13.01696c8.20096,0 12.92408,5.98732 12.92408,11.64956c0,12.43904 -23.31804,16.03212 -23.31804,35.6642v4.3774h18.65512v-3.10976c0,-5.27696 2.15172,-11.27632 8.52948,-15.32692c8.69804,-5.51776 13.79784,-12.23264 13.79784,-22.18972c0,-14.38264 -11.90928,-24.6648 -29.74224,-24.6648z" fill="#472b29"></path><g><path d="M85.30512,134.36468c-5.33716,0 -9.67672,-4.34128 -9.67672,-9.67844c0,-5.33716 4.33956,-9.67672 9.67672,-9.67672c5.33716,0 9.67844,4.33956 9.67844,9.67672c0,5.33716 -4.343,9.67844 -9.67844,9.67844z" fill="#a1d3a2"></path><path d="M85.30512,116.21352c4.67324,0 8.47444,3.8012 8.47444,8.47444c0,4.67324 -3.8012,8.47444 -8.47444,8.47444c-4.67324,0 -8.47444,-3.8012 -8.47444,-8.47444c0,-4.67324 3.80292,-8.47444 8.47444,-8.47444M85.30512,113.80552c-6.00968,0 -10.88244,4.87276 -10.88244,10.88244c0,6.00968 4.87276,10.88244 10.88244,10.88244c6.00968,0 10.88244,-4.87276 10.88244,-10.88244c0,-6.0114 -4.87276,-10.88244 -10.88244,-10.88244z" fill="#472b29"></path></g></g><g fill="#472b29"><path d="M96.105,47.17788c-0.07396,0 -0.14964,-0.01032 -0.22532,-0.03096c-2.65396,-0.71896 -5.56764,-1.0836 -8.66192,-1.0836c-0.47472,0 -0.86,-0.38528 -0.86,-0.86c0,-0.47472 0.38528,-0.86 0.86,-0.86c3.24564,0 6.3124,0.38528 9.11256,1.1438c0.45924,0.12384 0.72928,0.59684 0.60544,1.05436c-0.10492,0.38356 -0.45064,0.6364 -0.83076,0.6364z"></path></g><g fill="#472b29"><path d="M106.38028,53.00696c-0.22876,0 -0.4558,-0.09116 -0.62436,-0.26832c-1.05608,-1.11972 -2.30824,-2.12592 -3.71864,-2.99108c-0.64156,-0.39388 -1.3244,-0.75852 -2.02272,-1.09048c-0.42828,-0.20296 -0.61232,-0.71552 -0.40936,-1.14552c0.20468,-0.43 0.71896,-0.60888 1.14552,-0.40936c0.75336,0.35604 1.48952,0.75336 2.18612,1.17992c1.54112,0.946 2.90852,2.0468 4.06952,3.27488c0.32508,0.34572 0.31132,0.89096 -0.0344,1.21604c-0.16684,0.15652 -0.38012,0.23392 -0.59168,0.23392z"></path></g><g fill="#472b29"><path d="M88.78296,99.31796c-0.0344,0 -0.06708,-0.00172 -0.10148,-0.00516c-0.47128,-0.05504 -0.81012,-0.48332 -0.75508,-0.9546c0.88064,-7.51812 4.98112,-13.95436 11.5498,-18.12536c7.43212,-4.71796 10.6038,-9.61652 10.6038,-16.383c0,-1.98832 -0.32164,-3.89236 -0.95288,-5.65364c-0.25456,-0.7138 -0.56588,-1.41384 -0.92708,-2.08292c-0.22532,-0.41796 -0.0688,-0.94084 0.34916,-1.16616c0.42312,-0.22188 0.93912,-0.06708 1.16616,0.34916c0.40076,0.74648 0.7482,1.52564 1.032,2.32028c0.69832,1.94876 1.05264,4.04716 1.05264,6.23328c0,7.42696 -3.40904,12.7624 -11.4036,17.83468c-6.12148,3.88892 -9.94332,9.87968 -10.76032,16.8732c-0.0516,0.4386 -0.42312,0.76024 -0.85312,0.76024z"></path></g><g fill="#472b29"><path d="M85.14,130.72c-0.47472,0 -0.86,-0.38528 -0.86,-0.86c0,-0.47472 0.38528,-0.86 0.86,-0.86c1.00792,0 1.95048,-0.33712 2.72792,-0.97524c0.99932,-0.82044 1.57208,-2.03304 1.57208,-3.32476c0,-2.37188 -1.92812,-4.3 -4.3,-4.3c-1.14896,0 -2.2274,0.4472 -3.04096,1.25904c-0.3354,0.3354 -0.88064,0.3354 -1.21604,0c-0.3354,-0.3354 -0.3354,-0.88064 0,-1.21604c1.13864,-1.13692 2.6488,-1.763 4.257,-1.763c3.3196,0 6.02,2.7004 6.02,6.02c0,1.80944 -0.80152,3.50364 -2.19988,4.65432c-1.07328,0.88064 -2.42864,1.36568 -3.82012,1.36568z"></path></g></g></g></svg>